/* XPM */
static char *result[] = {
/* columns rows colors chars-per-pixel */
"50 50 130 2 ",
"   c #51EF55",
".  c #52EF56",
"X  c #53EF58",
"o  c #54EF59",
"O  c #55EF5A",
"+  c #57F05C",
"@  c #57F05D",
"#  c #58F05E",
"$  c #59F05F",
"%  c #5AF060",
"&  c #5AF061",
"*  c #5BF061",
"=  c #5BF062",
"-  c #5CF062",
";  c #5DF063",
":  c #5DF064",
">  c #5EF064",
",  c #5EF065",
"<  c #5FF066",
"1  c #5FF166",
"2  c #5FF167",
"3  c #60F167",
"4  c #60F168",
"5  c #61F168",
"6  c #61F169",
"7  c #62F169",
"8  c #62F16A",
"9  c #63F16A",
"0  c #63F16B",
"q  c #64F16C",
"w  c #65F16D",
"e  c #66F16E",
"r  c #66F26F",
"t  c #67F26F",
"y  c #67F270",
"u  c #68F270",
"i  c #68F271",
"p  c #69F272",
"a  c #6AF273",
"s  c #6AF274",
"d  c #6BF274",
"f  c #6BF275",
"g  c #6CF275",
"h  c #6CF276",
"j  c #6DF376",
"k  c #6DF377",
"l  c #6EF378",
"z  c #6FF379",
"x  c #6FF37A",
"c  c #70F37A",
"v  c #70F37B",
"b  c #71F37B",
"n  c #71F37C",
"m  c #72F37D",
"M  c #73F37D",
"N  c #73F47E",
"B  c #74F47F",
"V  c #75F480",
"C  c #75F481",
"Z  c #76F481",
"A  c #76F482",
"S  c #77F482",
"D  c #77F483",
"F  c #78F483",
"G  c #78F484",
"H  c #79F585",
"J  c #7AF586",
"K  c #7AF587",
"L  c #7BF587",
"P  c #7BF588",
"I  c #7CF588",
"U  c #7CF589",
"Y  c #7DF589",
"T  c #7DF58A",
"R  c #7EF58A",
"E  c #7EF58B",
"W  c #7FF68B",
"Q  c #7FF68C",
"!  c #80F68D",
"~  c #80F68E",
"^  c #81F68E",
"/  c #81F68F",
"(  c #82F68F",
")  c #82F690",
"_  c #83F690",
"`  c #83F691",
"'  c #84F691",
"]  c #84F792",
"[  c #85F793",
"{  c #86F794",
"}  c #87F795",
"|  c #87F796",
" . c #88F796",
".. c #88F797",
"X. c #89F797",
"o. c #89F897",
"O. c #89F898",
"+. c #8AF898",
"@. c #8AF899",
"#. c #8BF899",
"$. c #8BF89A",
"%. c #8CF89B",
"&. c #8CF89C",
"*. c #8DF89C",
"=. c #8EF89D",
"-. c #8EF99D",
";. c #8EF99E",
":. c #8FF99E",
">. c #8FF99F",
",. c #90F99F",
"<. c #90F9A0",
"1. c #91F9A0",
"2. c #91F9A1",
"3. c #92F9A1",
"4. c #92F9A2",
"5. c #92FAA2",
"6. c #93FAA3",
"7. c #93FAA4",
"8. c #94FAA4",
"9. c #94FAA5",
"0. c #95FAA5",
"q. c #95FAA6",
"w. c #96FAA6",
"e. c #96FAA7",
"r. c #97FAA7",
"t. c #97FBA8",
"y. c #98FBA8",
"u. c #98FBA9",
"i. c #99FBA9",
"p. c #99FBAA",
/* pixels */
"p.p.p.p.p.p.p.p.p.p.p.p.p.p.p.p.p.p.p.p.p.p.p.p.p.p.p.p.p.p.p.p.p.p.p.p.p.p.p.p.p.p.p.p.p.p.p.p.p.p.",
"p.p.p.p.p.p.p.p.p.p.p.p.p.p.p.p.p.p.p.p.p.p.p.p.p.p.p.p.p.p.p.p.p.p.p.p.p.p.p.p.p.p.p.p.p.p.p.p.p.p.",
"p.p.p.p.p.p.p.p.p.p.p.p.p.u.t.u.p.p.p.p.p.p.p.p.p.p.p.p.p.p.p.p.p.p.p.p.p.p.p.p.p.p.p.p.p.p.p.p.p.p.",
"p.p.u.t.u.p.p.p.p.p.p.y.e.9.4.w.p.p.p.p.p.p.p.p.p.p.p.p.p.p.p.p.p.p.p.p.p.p.p.p.p.p.p.p.p.p.p.p.p.p.",
"p.p.u.8.<.8.u.u.q.q.e.6.2.@.{ 4.p.p.p.p.p.p.p.p.p.p.p.p.p.p.p.p.p.p.p.p.p.p.p.p.p.p.p.p.p.p.p.p.p.p.",
"p.p.i.8.O.[ *.6.1.2.:.@...A K 6.i.u.t.u.p.p.p.p.p.p.p.p.p.p.p.p.p.p.p.p.p.p.p.p.p.p.p.p.p.p.p.p.p.p.",
"p.p.p.t.:.[  .*.*.<.@.( P u Z 2.8.4.8.t.p.u.u.i.p.p.p.p.p.p.p.p.p.p.p.p.p.p.p.p.p.p.p.p.p.p.p.p.p.p.",
"p.t.w.6.<.&.$.O.` T B S ! Q | 4.,.,.q.e.e.t.u.p.p.p.p.p.p.p.p.p.p.p.p.p.p.p.p.p.p.p.p.p.p.p.p.p.p.p.",
"p.u.0.O.H A ^ Q B f 3 M $.:.&.*.>.2.4.4.8.t.p.p.p.p.p.p.p.p.p.p.p.p.p.p.p.p.p.p.p.p.p.p.p.p.p.p.p.p.",
"p.p.t.;.D z ] [ N p : M $.=.#.=.o.D F ] <.u.p.p.p.p.p.p.p.p.p.p.p.p.p.p.p.p.y.u.p.p.p.p.p.p.p.p.p.p.",
"u.y.r.7.} ! [ { ^ G N H B g m [ -.W L $.0.u.p.p.p.p.p.u.u.p.p.p.p.p.p.p.t.u.7.8.p.p.p.p.p.p.p.p.p.p.",
"t.e.w.8.4. .m 0 y r l L n y R 4.e.=...:.9.t.i.p.p.p.p.r.6.7.u.p.y.e.u.r.4.8.| *.p.p.p.p.p.p.p.p.p.p.",
"p.i.u.u.u.6.) i O # 0 E { m J >.e.5.%.;.q.i.p.p.p.p.p.u.:.} *.q.8.<.8.-.%.#.l $.p.i.u.u.i.p.p.p.p.p.",
"p.p.p.p.e.:. .D ; O p X.&.m t Q 6.t.e.t.i.p.p.p.p.p.p.p.6.] ` ;.:.*.5.' [ J % %.y.8.8.w.p.i.u.u.p.p.",
"p.p.p.y.<.} Q m a m ) -.;.Q M T =.9.q.e.u.i.p.p.p.i.t.r.6.*.} %...[ ] B ! L b ;.9.*.6.e.t.t.y.u.p.p.",
"p.p.p.1.^ V c p > u N g n Q `  .*.4.6.4.8.t.p.p.p.i.r.6.} E ( X.U V f 1 ] $.@.=.<.;.6.9.6.w.u.p.p.p.",
"p.p.q.] z r e w r j 0 X d { ..$.8.0.8.e.u.i.p.p.p.p.i.8._ e D %.D k 0 O ..>.-.X.2.[ W [ &.e.p.p.p.p.",
"p.u.:.] T G ^ +.O.A < r ( 2.H u ( =.>.e.p.p.p.p.p.u.u.e.=.B W $.~ F j s ( H J T 6._ z W :.r.p.p.p.p.",
"p.u.0.8.7.;.$.:.=.H V | 7.u.} g b ^ #.6.y.p.p.p.p.e.r.q.6.$.^ m n V p H U 7 i ' q.4.! X.7.e.u.p.p.p.",
"p.p.i.p.e.6.<.-.~ l S *.u.p.w.:.o.$.4.9.e.u.p.p.p.t.u.r.e.e.| j + * - z O.m s &.t.e.&.$.5.t.u.p.p.p.",
"p.p.p.u.0.8.e.O.M h Q 2.,.3.e.8.9.q.q.w.t.u.i.p.p.p.p.p.p.w.%._ 3 . # n w.! 9 D 2.t.8.2.e.p.p.p.p.p.",
"p.p.i.q.8.t.r.{ D ^ ,.0.<.6.q.8.e.t.e.e.y.u.u.u.p.u.t.u.t.*.[ ! p 8 l [ 8.| f l O.q.e.e.u.i.p.p.p.p.",
"p.i.u.u.u.i.9.-.*.2.t.y.q.e.q.6.w.t.u.u.u.u.t.e.e.9.4.q.*.E G n w 6 H T S ] Y ! X.1.8.5.0.e.p.p.p.p.",
"p.p.p.p.p.p.u.e.9.e.p.i.t.u.r.4.;.4.t.t.9.8.0.4.2.@.{ *.K l r s 3 0 z 1   Y o.{ >.7.7.8.q.t.p.p.p.p.",
"p.p.p.p.p.p.p.u.t.u.p.i.u.i.u.7.X.] *.4.,.<.*.+...A H ] J m l Y U ! e @ q @.:.h ! 6.-.0.p.p.p.p.p.p.",
"p.p.p.p.p.p.p.p.p.p.p.p.p.p.p.t.:.[ } %.&.>.O.^ P y N { #.] / $.6.X.q N _ 4.4.y w ` } <.t.p.p.p.p.p.",
"p.p.p.p.p.p.p.p.p.p.p.p.i.w.0.6.<.&.$.o._ Y B A ! E _ $.*.$.&.X.$.D y E $.@.6.@.R ^ %.2.q.u.p.p.p.p.",
"p.p.u.u.p.p.p.p.p.p.p.t.t.6.2.O.H A ^ Q B f 3 M $.-.| ! ^ ] +.} S e q Y L S 3.w.6.,.8.0.e.t.u.p.p.p.",
"p.i.e.6.9.u.p.t.e.y.e.6.3...-.;.D z ] [ N p : M $.*. .^ M i x H i a l U i g 2.<.,.7.0.0.r.t.t.u.p.p.",
"p.p.e.=...:.0.6.2.6.-.%.[ B %.7.} W ] [ ^ G N H N s z Y T n z V c l V T N P 1.%.*.5.q.0.w.e.t.t.p.p.",
"p.p.u.1.] [ ;.:.;.,.] _ N w %.4.*.] v 0 t e k L v w B U T I V l a 5 m  .O.O.:.%.:.2.6.7.e.t.u.r.p.p.",
"u.t.e.4.%. .$. .[ / S Q G D :.4.*.*.! t o @ 9 E [ c c z k Y D d w = M %.-.+.*.@./ ~ X.1.r.u.u.t.p.p.",
"u.e.1.[ Q ` { L N p u [ $.$.-.,.*.O.] N = o p  .%.b 9 j V ] ] L n g S T H L o.$.H S } 4.r.u.u.y.p.p.",
"p.u.2.R a I ..C f 5 8 +.>.*.@.*.Y n v d i m ) &.%.Y z Z U Z z n l n L c w S *.8.O.] -.9.r.u.i.u.p.p.",
"u.u.0.O.A ^ O.Q Z h c ! H K ( ..g $ 4 0 ; u N d v E ^ { ] C 1 O $ w T W l Y 4.r.3.%.:.0.u.p.p.p.p.p.",
"e.e.0.2.O.E m m M h J F 0 l ] ! i # > 7 w h 0 X d { ..O.%.' c # O e [ $.M l [ 8.w.6.8.y.p.p.p.p.p.p.",
"t.y.r.e.8._ p # * 3 V [ b n [ ( H z S [  .Z < r ( 2.H 0 V H l q i J *.-.K j U >.e.e.y.i.p.p.p.p.p.p.",
"p.p.p.u.8.#.Y : X , H 4.L r J -.2.O.[ *.=.H V | 7.y.( 2 ; q 8 2 k L J R ~ E ] &.5.7.8.q.u.p.p.p.p.p.",
"p.p.p.q.%.] U u w N  .4._ g B $.7.<.;.*.! l S *.u.e.[ k 4 3 6 1 u t # a ` | #.2.7.7.9.e.u.p.p.p.p.p.",
"p.p.e.#.T S x q t J U H _ T ( +.=.>.<.{ n h Q 2.:.@.~ N l B J P M < , J *.Q A +.1.2.r.p.p.p.p.p.p.p.",
"p.u.>.G j y p 5 e g ; - Q ..| *.:.3.4.` A ^ ,.0.>.&.$.X.{  .*.%.F h U -.w.~ r C [ %.8.u.p.p.p.p.p.p.",
"p.q.| H m M R T L 0 & l %.o.c _ 2.:.2.-.*.2.t.y.0.q.q.6.<.*.*.] m S %.e.p.3.] Q } :.7.e.u.p.p.p.p.p.",
"i.0.-.;.O.} -.2.` i G O.r.*.y g ] o.2.0.8.e.p.i.t.u.t.7.3.6.@.Z f K ;.4.9.t.0.4.6.0.q.r.u.i.p.p.p.p.",
"p.u.u.u.8.,.*.%.D c | r.p.e. .E ` *.5.0.e.u.p.i.u.u.e.8.q.w.{ B H O.5.;.3.w.8.e.t.e.e.y.u.u.i.p.p.p.",
"p.p.p.t.6.8.1.Y g m %.q.4.u.q.6.3.0.q.e.t.i.p.p.i.u.e.e.u.0.#.[ %.9.q.6.q.e.0.e.t.t.t.u.u.t.u.p.p.p.",
"p.p.y.9.0.t.<.V S ' 9.3.=.t.8.q.y.e.w.t.u.u.u.p.p.i.p.p.p.e.8.6.q.u.u.e.y.t.e.r.t.u.u.u.u.t.u.p.p.p.",
"p.u.t.w.u.y.>.] +.8.u.8.8.y.8.e.t.y.t.u.u.y.y.p.p.p.p.p.p.p.u.e.u.p.i.u.u.i.u.u.u.u.u.u.u.y.u.p.p.p.",
"p.i.i.p.p.u.8.7.8.u.p.t.r.u.e.t.r.u.u.u.u.u.t.p.p.p.p.p.p.p.i.u.p.p.p.i.p.p.p.p.i.u.u.u.u.u.u.p.p.p.",
"p.p.p.p.p.p.i.e.t.p.p.u.u.p.u.u.y.u.u.u.u.u.u.p.p.p.p.p.p.p.p.p.p.p.p.p.p.p.p.p.p.p.i.i.i.u.i.p.p.p.",
"p.p.p.p.p.p.p.u.p.p.p.i.p.p.p.p.i.i.u.u.u.u.u.p.p.p.p.p.p.p.p.p.p.p.p.p.p.p.p.p.p.p.p.p.p.p.p.p.p.p."
};
