/* XPM */
static char *f2e70e2ebf4c4ad9ba446690d7b9e505cebF3Ln5Ooey5Rud[] = {
/* columns rows colors chars-per-pixel */
"50 50 90 1 ",
"  c black",
". c #090B00",
"X c #111300",
"o c #161900",
"O c #1B1E01",
"+ c #1F2201",
"@ c #292D01",
"# c #2B3001",
"$ c #2E3301",
"% c #303501",
"& c #333802",
"* c #353A02",
"= c #393E02",
"- c #3B4102",
"; c #3F4402",
": c #424803",
"> c #444A03",
", c #474D03",
"< c #484F03",
"1 c #4A5103",
"2 c #4B5203",
"3 c #4D5404",
"4 c #4F5704",
"5 c #515804",
"6 c #535B04",
"7 c #565E05",
"8 c #596105",
"9 c #5F6706",
"0 c #606906",
"q c #616A06",
"w c #666F07",
"e c #697207",
"r c #6C7507",
"t c #6D7607",
"y c #6E7708",
"u c #6F7808",
"i c #707908",
"p c #727C08",
"a c #737D08",
"s c #757F09",
"d c #778209",
"f c #7A8409",
"g c #7C870A",
"h c #7F8A0A",
"j c #808B0B",
"k c #838E0B",
"l c #838F0B",
"z c #84900B",
"x c #85900B",
"c c #87930C",
"v c #89950C",
"b c #8A960C",
"n c #8C980D",
"m c #8E9A0D",
"M c #929F0E",
"N c #939F0E",
"B c #95A10E",
"V c #99A60F",
"C c #9AA70F",
"Z c #9BA80F",
"A c #9CAA10",
"S c #9FAC10",
"D c #A2AF10",
"F c #A4B211",
"G c #A5B311",
"H c #A7B511",
"J c #A8B611",
"K c #ACBB12",
"L c #AFBD13",
"P c #B0BF13",
"I c #B2C113",
"U c #B3C213",
"Y c #B4C314",
"T c #B6C514",
"R c #BBCA15",
"E c #BCCB15",
"W c #BDCD15",
"Q c #C0D016",
"! c #C4D416",
"~ c #C6D717",
"^ c #C7D817",
"/ c #C8D917",
"( c #CADB17",
") c #CCDD18",
"_ c #CFE118",
"` c #D0E219",
"' c #D3E519",
"] c #D6E719",
"[ c #D7E91A",
"{ c #D9EB1A",
/* pixels */
"{{{{{{{{{{{{{{{{{{{{{{{{{{{{{{{{{{{{{{{{{{{{{{{{{{",
"{{{{{{{{{{{{{{{{{{{{{{{{{{{{{{{{{{{{{{{{{{{{{{{{{{",
"{{{{{{{{{{{{{{{{{{{{{{{{{{{{{{{{{{{{{{{{{{{{{{{{{{",
"{{{{{{{{{{{{{{{{{{{{{{{{{{{{{{{{{{{{{{{{{{{{{{{{{{",
"{{{{{{{{{{{{{{{{{{{{{{{{{{{{{{{{{{{{{{{{{{{{{{{{{{",
"{{{{{{{{{{{{{{{{{{{{{{{{{{{{{{{{{{{{{{{{{{{{{{{{{{",
"{{{{{{{{{{{{{{{{{{{{{{{{{{{{{{{{{{{{{{{{{{{{{{{{{{",
"{{{{{{{{{{{{{{{{{{{{{{{{{{{{{{{{{{{{{{{{{{{{{{{{{{",
"{{{fQ{{{[fQ{{{{fQ[{{{fQ[{{{fQ[{{{fQ{{{{fQ{{{{fW[{{",
"{Wwwbs{Wwwbs{Wwwbd{Wwwbs{Wwwbs{Wwwbs{Ewwbs{Wwwbd{{",
"{{V >({{V :({{V >({{V >({{V >({{V >){{A >({{V :({{",
"{W9qka{Wqqka{W9qka{W9qka{Qqqka{Wqqli{W9qli{Wqqka{{",
"{{{fQ]{{[fQ]{{[fQ]{{]fQ]{{[fQ[{{{fW[{{]fQ{{{[fQ[{{",
"{{{{{{{{{{{{{{{{{{{{{{{{{{{{{{{{{{{{{{{{{{{{{{{{{{",
"{{{{{{{{{{{{{{{{{{{{{{{{{{{{{{{{{{{{{{{{{{{{{{{{{{",
"{{{{{{{{{{{{{{{{{{{{{{{{{{{{{{{{{{{{{{{{{{{{{{{{{{",
"{{{{{{{{{{{{{{{{{{{{{{{{{{{{{{{{{{{{{{{{{{{{{{{{{{",
"{{{{{{{{{{{{{{{{{{{{{{{{{{{{{{{{{{{{{{{{{{{{{{{{{{",
"{{{{{u 1:%%~k< ow{{{{Itq{5iY{{{{{{{Itq{5iY{{{{{{{{",
"{{{{{oot*9BP<8 Xa{{]h$ y{8  s'{{{]h$ y{8  s'{{{{{{",
"{{{{{@O&K)(4tgqXK{{h   _{~   j{{{h   _{~   j{{{{{{",
"{{{{{ .I{]ktel:M{{T   o{{{  oc){T   o{{{  oc){{{{{",
"{{{{{Bh]{S6cmqs]{{d   o{{{  .9f{d   o{{{  .9f{{{{{",
"{{{{{{{{R  4qb[{{{1   O{{{#$>o*{1   O{{{#$>o*{{{{{",
"{{{{{{{'5o%@,T{{{{@ $O#{{{*9.$f{@ $O#{{{*9.$g{{{{{",
"{{{{{{{cq=@*c{{W~{9 5 @{{{fmhAA{9 5 @{{[fmhZV{{{{{",
"{{{{{{K=k-sm`{(*:{B.  &{{{LIUbH{B.  &{{{LIIvJ{{{{{",
"{{{{{]sVFB]{{)91 [`=+ X[{]9MLI_{`=+ X{{]9MLI`{{{{{",
"{{{{{WHmW^{V8y87h{{RO .A[H77c'{{{RO .Z{H77c[{{{{{{",
"{{{{{ZUWQ)(.  wqj{{{Ww$F{8;c_{{{{{Ww$F{8;k_{{{{{{{",
"{{{{{{T^^{]VVBAF~{{{{{!R{T^{{{{{{{{{~R{Y({{{{{{{{{",
"{{{{{{{{{{{{{{{{{{{{{{{{{{{{{{{{{{{{{{{{{{{{{{{{{{",
"{{{{{{{{{{{{{{{{{{{{{{{{{{{{{{{{{{{{{{{{{{{{{{{{{{",
"{{{{{{{{{{{{{{{{{{{{{{{{{{{{{{{{{{{{{{{{{{{{{{{{{{",
"{{{{{{{{{{{{{{{{{{{{{{{{{{{{{{{{{{{{{{{{{{{{{{{{{{",
"{{{fQ{{{{fQ[{{{fW{{{{fQ[{{{fQ{{{{fQ[{{{fQ{{{{fQ[{{",
"{Wwwbd{Wwwbd{Wwwms{Wwwbd{Wwwbs{Wwwbs{Wwwbs{Wwwbs{{",
"{{V :({{V :({{V >({{V :){{V >({{V >){{V >({{V >({{",
"{Wqqka{Wqqka{W9qki{Wqqki{Wqqks{Wqqki{Q9qka{W9qka{{",
"{[[fQ[{{[fQ]{{[fQ]{{{fQ]{{]fQ]{{[fW[{{[fQ]{{[fQ]{{",
"{{{{{{{{{{{{{{{{{{{{{{{{{{{{{{{{{{{{{{{{{{{{{{{{{{",
"{{{{{{{{{{{{{{{{{{{{{{{{{{{{{{{{{{{{{{{{{{{{{{{{{{",
"{{{{{{{{{{{{{{{{{{{{{{{{{{{{{{{{{{{{{{{{{{{{{{{{{{",
"{{{{{{{{{{{{{{{{{{{{{{{{{{{{{{{{{{{{{{{{{{{{{{{{{{",
"{{{{{{{{{{{{{{{{{{{{{{{{{{{{{{{{{{{{{{{{{{{{{{{{{{",
"{{{{{{{{{{{{{{{{{{{{{{{{{{{{{{{{{{{{{{{{{{{{{{{{{{",
"{{{{{{{{{{{{{{{{{{{{{{{{{{{{{{{{{{{{{{{{{{{{{{{{{{",
"{{{{{{{{{{{{{{{{{{{{{{{{{{{{{{{{{{{{{{{{{{{{{{{{{{",
"{{{{{{{{{{{{{{{{{{{{{{{{{{{{{{{{{{{{{{{{{{{{{{{{{{",
"{{{{{{{{{{{{{{{{{{{{{{{{{{{{{{{{{{{{{{{{{{{{{{{{{{"
};
