/* XPM */
static char *_2d61f7bda2a4b86c81361704b722a2dnmR6vvrjfp9yQaZq[] = {
/* columns rows colors chars-per-pixel */
"50 50 59 1 ",
"  c black",
". c gray5",
"X c #161616",
"o c gray11",
"O c #222222",
"+ c gray15",
"@ c #2A2A2A",
"# c gray18",
"$ c #323232",
"% c gray22",
"& c gray24",
"* c gray26",
"= c gray27",
"- c #4B4B4B",
"; c gray30",
": c #515151",
"> c #565656",
", c #5A5A5A",
"< c #5F5F5F",
"1 c gray39",
"2 c #656565",
"3 c #686868",
"4 c #6C6C6C",
"5 c gray44",
"6 c gray46",
"7 c gray47",
"8 c #7C7C7C",
"9 c #818181",
"0 c gray53",
"q c #888888",
"w c gray56",
"e c #939393",
"r c gray58",
"t c #989898",
"y c gray62",
"u c #A0A0A0",
"i c #A5A5A5",
"p c gray66",
"a c #AFAFAF",
"s c gray70",
"d c #B6B6B6",
"f c gray73",
"g c gray74",
"h c #C0C0C0",
"j c #C5C5C5",
"k c #CBCBCB",
"l c #CDCDCD",
"z c gray82",
"x c gray84",
"c c #D8D8D8",
"v c gainsboro",
"b c #E2E2E2",
"n c #E7E7E7",
"m c #EAEAEA",
"M c #EEEEEE",
"N c #F3F3F3",
"B c gray97",
"V c #FBFBFB",
"C c white",
/* pixels */
"                                                  ",
" CCCCCCCCCCCCCCCCCCCCCCCCCCCCCCCCCCCCCCCCCCCCCCCC ",
" CCCCCCCCCCCCCCCCCCCCCCCCCCCCCCCCCCCCCCCCCCCCCCCC ",
" CCCCCCCCCCCCCcOq: ;@zB,   yj&9uuggCn.@zu X=Mu 5B ",
" Cz41imCp1o1mCN94& ooNCeX$fBc:5,pcVCv &M9 -Onr@om ",
" Cy67alC<  ojCCCg5  @mC9 zCCCd 2wbCCc gC9.4.nCw1M ",
" CbOX-pCVv7<lCCCC9. @sNdjCCCCg.1;bCCb MCw66-nClrN ",
" CC   qCCCM8lCCCCN8>67uVCCCCCgO9%bCCC0CCeO 1MCCNC ",
" CC   qC6uCnBCCCCCn=49wgCCCCCl-68zCCCfCC8O&1NCCCC ",
" CC   rC 0CCCCCCCCCj+*> gCCCCm29:lCCCCCC8 wpNCCCC ",
" CC   qC 6CCCCCCCv>bu   .cCCCnghzMCCCCCC8.w=NCCCC ",
" CC   qCwpbrnCCCz+ fV;   *bCCc6vBxCCCCCc- 1 mCCCC ",
" CC+  qCCB3.dCN4#,1uM&    .eB;=jMvnCCCvO;.$O<cCCC ",
" Cs   qCh1  sCNrweujNe:   @jM9 qMlNCCCCkczfgpNCCC ",
" Ct666dC4$  kCCCCCCCCCmB0bwCCm%CCCCCCCCCCCCCCCCCC ",
" CCCCCCCfuM-CCCCCCCCCCCCfmeCCVqCCCCCCCCCCCCCCCCCC ",
" CCCCCCCCNCtCCCCCCCCCCCCCVxCCCCCCCCCCCCCCCCCCCCCC ",
" CCCCCCCCCCCCCCCCCCCCCCCCCCCCCCCCCCCCCCCCCCCCCCCC ",
" CCCCCCCCCCCCCCCCCCCCCCCCCCCCCCCCCCCCCCCCCCCCCCCC ",
" CCCCCCCCCCCCCCCCCCCCCCCCCCCCCCCCCCCCCCCCCCCCCCCC ",
" CCCCCCCCCCCCCCCCCCCCCCCCCCCCCCCCCCCCCCCCCCCCCCCC ",
" CCCCCCCCCCCCCCCCCCCCCCCCCCCCCCCCCCCCCCCCCCCCCCCC ",
" CCCVvjjbBCCCCCCCCCCCCCCCCCCCCCCCCCCCCCCCCCCCCCCC ",
" CCCbr--rbCCCCCCCCCCCCCCCCCCCCCCCCCCCCCCCCCCCCCCC ",
" CCCj=  =jCCCCCCCCCCCCCCCCCCCCCCCCCCCCCCCCCCCCCCC ",
" CCCj-  -jCCCCCCCCCCCCCCCCCCCCCCCCCCCCCCCCCCCCCCC ",
" CCCbr=-tbCCCCCCCCCCCCCCCCCCCCCCCCCCCCCCCCCCCCCCC ",
" CCCVbjjvVCCCCCCCCCCCCCCCCCCCCCCCCCCCCCCCCCCCCCCC ",
" CCCCCCCCCCCCCCCCCCCCCCCCCCCCCCCCCCCCCCCCCCCCCCCC ",
" CCCCCCCCCCCCCCCCCCCCCCCCCCCCCCCCCCCCCCCCCCCCCCCC ",
" CCCCCCCCCCCCCCCCCCCCCCCCCCCCCCCCCCCCCCCCCCCCCCCC ",
" CCCCCCCCCCCCCCCCCCCCCCCCCCCCCCCCCCCCCCCCCCCCCCCC ",
" CCCCCCCCCCCCCCCCCCCCCCCCCCCCCCCCCCCCCCCCCCCCCCCC ",
" CCCCCCCCCCCCCCCCCCCCCCCCCCCCCCCCCCCCCCCCCCCCCCCC ",
" CCCCCCCCCCCCCCCCCCCCCCCCCCCCCCCCCCCCCCCCCCCCCCCC ",
" CCCCCCCCCCCCCCCCCCCCCCCCCCCCCCCCCCCCCCCCCCCCCCCC ",
" CCCCCCCCCCCCCCCCCCCCCCCCCCCCCCCCCCCCCCCCCCCCCCCC ",
" CCCCCCCCCCCCCCCCCCCCCCCCCCCCCCCCCCCCCCCCCCCCCCCC ",
" CCCCCCCCCCCCCCCCCCCCCCCCCCCCCCCCCCCCCCCCCCCCCCCC ",
" CCCCCCCCCCCCCCCCCCCCCCCCCCCCCCCCCCCCCCCCCCCCCCCC ",
" CCCCCCCCCCCCCCCCCCCCCCCCCCCCCCCCCCCCCCCCCCCCCCCC ",
" CCCCCCCCCCCCCCCCCCCCCCCCCCCCCCCCCCCCCCCCCCCCCCCC ",
" CCCCCCCCCCCCCCCCCCCCCCCCCCCCCCCCCCCCCCCCCCCCCCCC ",
" CCCCCCCCCCCCCCCCCCCCCCCCCCCCCCCCCCCCCCCCCCCCCCCC ",
" CCCCCCCCCCCCCCCCCCCCCCCCCCCCCCCCCCCCCCCCCCCCCCCC ",
" CCCCCCCCCCCCCCCCCCCCCCCCCCCCCCCCCCCCCCCCCCCCCCCC ",
" CCCCCCCCCCCCCCCCCCCCCCCCCCCCCCCCCCCCCCCCCCCCCCCC ",
" CCCCCCCCCCCCCCCCCCCCCCCCCCCCCCCCCCCCCCCCCCCCCCCC ",
" CCCCCCCCCCCCCCCCCCCCCCCCCCCCCCCCCCCCCCCCCCCCCCCC ",
"                                                  "
};
