/* XPM */
static char *_30fede8087e429dae1a1e6b92825f62c9ql9sdfpIf1mzGA[] = {
/* columns rows colors chars-per-pixel */
"50 50 60 1 ",
"  c black",
". c gray5",
"X c #161616",
"o c gray11",
"O c #222222",
"+ c gray15",
"@ c #2A2A2A",
"# c gray18",
"$ c #323232",
"% c #353535",
"& c gray22",
"* c gray24",
"= c gray26",
"- c gray27",
"; c #4B4B4B",
": c gray30",
"> c #515151",
", c #565656",
"< c #5A5A5A",
"1 c #5F5F5F",
"2 c gray39",
"3 c #656565",
"4 c #686868",
"5 c #6C6C6C",
"6 c gray44",
"7 c gray46",
"8 c gray47",
"9 c #7C7C7C",
"0 c #808080",
"q c gray53",
"w c #888888",
"e c gray56",
"r c #939393",
"t c gray58",
"y c #989898",
"u c gray62",
"i c #A0A0A0",
"p c #A5A5A5",
"a c gray66",
"s c #AFAFAF",
"d c #B2B2B2",
"f c #B6B6B6",
"g c gray73",
"h c gray74",
"j c #C0C0C0",
"k c gray77",
"l c #CBCBCB",
"z c #CDCDCD",
"x c gray82",
"c c gray83",
"v c #D8D8D8",
"b c gainsboro",
"n c #E2E2E2",
"m c #E7E7E7",
"M c #EAEAEA",
"N c #EEEEEE",
"B c #F3F3F3",
"V c gray97",
"C c #FBFBFB",
"Z c white",
/* pixels */
"                                                  ",
" ZZZZZZZZZZZZZZZZZZZZZZZZZZZZZZZZZZZZZZZZZZZZZZZZ ",
" ZZZZZZZZZZZZZZZZZZZZZZZZZZZZZZZZZZZZZZZZZZZZZZZZ ",
" ZZZZZZZZZZZZZvOw> :@xV<   uk*0iihhZm.@xi X-Ni 6V ",
" Zx52pMZa2o2MZB05* ooBZtX$gVb:7,avCZb *N0 ;Omt@oM ",
" Zu78szZ1  okZZZh6  @MZ9 xZZZf 3enZZv hZ0.6.mCe2N ",
" ZnOX;aZCb81zZZZZ0. @fBfkZZZZh.2:nZZn NZe77;mZztB ",
" ZZ   wZZZN9zZZZZB9,78iCZZZZZhO0&nZZZqZZrO 2NZZVZ ",
" ZZ   wZ7iZmVZZZZZn;50ehZZZZZz;79xZZZgZZ9O*2BZZZZ ",
" ZZ   tZ qZZZZZZZZZk+=, hZZZZM40:zZZZZZZ9 eaBZZZZ ",
" ZZ   wZ 7ZZZZZZZb,ni   .vZZZmhjxNZZZZZZ9.e-BZZZZ ",
" ZZ   wZeantmZZZc+ gC:   =nZZv7bCcZZZZZv; 2 MZZZZ ",
" ZZ+  wZZV4.fZB6#<2iN*    .rV:-kNbmZZZbO:.$O1vZZZ ",
" Zd   wZj2  dZBterikBr>   @kN0 wNzBZZZZlvxghaBZZZ ",
" Zy777fZ5$  lZZZZZZZZZMVqneZZM&ZZZZZZZZZZZZZZZZZZ ",
" ZZZZZZZgiN;ZZZZZZZZZZZZgMrZZCwZZZZZZZZZZZZZZZZZZ ",
" ZZZZZZZZBZyZZZZZZZZZZZZZCcZZZZZZZZZZZZZZZZZZZZZZ ",
" ZZZZZZZZZZZZZZZZZZZZZZZZZZZZZZZZZZZZZZZZZZZZZZZZ ",
" ZZZZZZZZZZZZZZZZZZZZZZZZZZZZZZZZZZZZZZZZZZZZZZZZ ",
" ZZZZZZZZZZZZZZZZZZZZZZZZZZZZZZZZZZZZZZZZZZZZZZZZ ",
" ZZZZZZZZZZZZZZZZZZZZZZZZZZZZZZZZZZZZZZZZZZZZZZZZ ",
" ZZZZZZZZZZZZZZZZZZZZZZZZZZZZZZZZZZZZZZZZZZZZZZZZ ",
" ZZZCnkknVZZZZZZZZZZZZZZZZZZZZZZZZZZZZZZZZZZZZZZZ ",
" ZZZnt;;tnZZZZZZZZZZZZZZZZZZZZZZZZZZZZZZZZZZZZZZZ ",
" ZZZk-  -kZZZZZZZZZZZZZZZZZZZZZZZZZZZZZZZZZZZZZZZ ",
" ZZZk;  ;kZZZZZZZZZZZZZZZZZZZZZZZZZZZZZZZZZZZZZZZ ",
" ZZZny;-ynZZZZZZZZZZZZZZZZZZZZZZZZZZZZZZZZZZZZZZZ ",
" ZZZCnkkbCZZZZZZZZZZZZZZZZZZZZZZZZZZZZZZZZZZZZZZZ ",
" ZZZZZZZZZZZZZZZZZZZZZZZZZZZZZZZZZZZZZZZZZZZZZZZZ ",
" ZZZZZZZZZZZZZZZZZZZZZZZZZZZZZZZZZZZZZZZZZZZZZZZZ ",
" ZZZZZZZZZZZZZZZZZZZZZZZZZZZZZZZZZZZZZZZZZZZZZZZZ ",
" ZZZZZZZZZZZZZZZZZZZZZZZZZZZZZZZZZZZZZZZZZZZZZZZZ ",
" ZZZZZZZZZZZZZZZZZZZZZZZZZZZZZZZZZZZZZZZZZZZZZZZZ ",
" ZZl2N<dZZxO-geOtCZVVZCVZyX>Mc@3CVVZCVZ6 +k%9nZZZ ",
" Zk uZf kZZ9;sC  lk1iMw xCq.6Z0ck1iMw xNo.nV @MZZ ",
" Z3 aZh#:ZZe iCX kZO;bZixVj: danZO:bZpxZ%wNZ  dZZ ",
" Z*&sZxyaZZe*iu@4CZ  c4BVN<v.XzNZ  c4BVZ  vZ* iZZ ",
" ZwosZblkZZy%iZeNZZ  x*VCN;Zs+;BZ  c*VCZ  cV;,xZZ ",
" ZM-7CyeZZB;.>MMZZZ  cc7jpokCs-cZ  cc6jv  d XsZZZ ",
" ZZVcBlVZZCrxxBZZZiO+v1 jzrdZBmCiOOv2 kzddB6fZZZZ ",
" ZZZZZZZZZZhZZZZZZZZZZsyVZCMZZZZZZZZdyVZZZZzZZZZZ ",
" ZZZZZZZZZZmZZZZZZZZZZCBZZZZZZZZZZZZCBZZZZZZZZZZZ ",
" ZZZZZZZZZZZZZZZZZZZZZZZZZZZZZZZZZZZZZZZZZZZZZZZZ ",
" ZZZZZZZZZZZZZZZZZZZZZZZZZZZZZZZZZZZZZZZZZZZZZZZZ ",
" ZZZZZZZZZZZZZZZZZZZZZZZZZZZZZZZZZZZZZZZZZZZZZZZZ ",
" ZZZZZZZZZZZZZZZZZZZZZZZZZZZZZZZZZZZZZZZZZZZZZZZZ ",
" ZZZZZZZZZZZZZZZZZZZZZZZZZZZZZZZZZZZZZZZZZZZZZZZZ ",
" ZZZZZZZZZZZZZZZZZZZZZZZZZZZZZZZZZZZZZZZZZZZZZZZZ ",
" ZZZZZZZZZZZZZZZZZZZZZZZZZZZZZZZZZZZZZZZZZZZZZZZZ ",
"                                                  "
};
