/* XPM */
static char *result[] = {
/* columns rows colors chars-per-pixel */
"50 50 69 1 ",
"  c black",
". c #010100",
"X c #010101",
"o c #020201",
"O c #020202",
"+ c #030302",
"@ c gray1",
"# c #040403",
"$ c #040404",
"% c #050504",
"& c #060605",
"* c #060606",
"= c #126C6C",
"- c #157A7A",
"; c #167B7A",
": c #167B7B",
"> c #5A5A5A",
", c #5B5B5B",
"< c gray42",
"1 c #717171",
"2 c #727272",
"3 c #747474",
"4 c gray47",
"5 c gray48",
"6 c #29C7C7",
"7 c #29C8C8",
"8 c #2BD1D1",
"9 c #30E3E3",
"0 c #33F1F1",
"q c #35F8F8",
"w c #37FFFF",
"e c #4CF5F5",
"r c #57FFFF",
"t c #5AFEFE",
"y c #68FFFF",
"u c #6FFFFF",
"i c #868686",
"p c #989898",
"a c #9A9A9A",
"s c #9F9F9F",
"d c gray69",
"f c gray75",
"g c #86E5E5",
"h c #8DFFFF",
"j c #A7FFFF",
"k c #B3FFFF",
"l c #C8C8C8",
"z c gray79",
"x c #CECECE",
"c c LightGray",
"v c #DDDDDD",
"b c gray87",
"n c gray88",
"m c gray92",
"M c #EEEEEE",
"N c #E9FFFF",
"B c #EEFFFF",
"V c gray94",
"C c gray96",
"Z c #F6F6F6",
"A c gray97",
"S c #F9F9F9",
"D c gray98",
"F c #FBFBFB",
"G c gray99",
"H c #FDFDFD",
"J c #FEFEFE",
"K c white",
"L c None",
/* pixels */
"LLLLLLLLLLLLLLLLLLLLoO O O OOOLLLLLLLLLLLLLLLLLLLL",
"LLLLLLLLLLLLLLLLLOXXo O O oXXo + LLLLLLLLLLLLLLLLL",
"LLLLLLLLLLLLLLLXoXXo O O oXXo O O $LLLLLLLLLLLLLLL",
"LLLLLLLLLLLLL@ XXXO O O oXXo O O oXXLLLLLLLLLLLLLL",
"LLLLLLLLLLLLO.XXXO O O XXXO O O XXXO *LLLLLLLLLLLL",
"LLLLLLLLLLLOXXXXO O O.XXXO O O.XXXO O %LLLLLLLLLLL",
"LLLLLLLLLLOXXXXO O OXXXXO O OXXXXO O O.@LLLLLLLLLL",
"LLLLLLLLLOXXXXO O OXXXXO O OXXXXO O OXXXOLLLLLLLLL",
"LLLLLLLLOXXXXO O OXXXXO O OXXXXO O OXXXXOLLLLLLLLL",
"LLLLLLL@XXX.O O OXXXXO O OXXXXO O OXXXXO +LLLLLLLL",
"LLLLLLLXXX O O OXXX.O O OXXX.O O OXXXXO O $LLLLLLL",
"LLLLLL+Xo O O OXXX O O OXXX O O OXXX.O O OXLLLLLLL",
"LLLLLLXo O O oXXo O O oXXo O O OXXX O O OXXOLLLLLL",
"LLLLLXo O O oXXo O O oXXo O O oXXo O O oXXo LLLLLL",
"LLLLLO O O XXXO O O oXXo O O oXXo O O oXXo O LLLLL",
"LLLLL O O.XXXO O O XXXO O O XXXO O O oXXo O @LLLLL",
"LLLL O OXXXXO4nFKDc1XO O O.XX1zCKSb5XXXO O O LLLLL",
"LLLLO OXXXXOdJKKKKKAa O OXXXpMKKKKKJfXO O O.XLLLLL",
"LLLL OXXXXO<JKKKKKKKZ> OXXX>mKKKKKKKKL O OXXX+LLLL",
"LLLLOXXXX=7twukBKKKKKlOXXX=guwukBKKKKK$ OXXXX+LLLL",
"LLLLXXX.:9wwwwwhNKKKKCXXX-9wwwwwhNKKKJLOXXXXO LLLL",
"LLL@XX O8wwwwwwwjKKKKJXX.8wwwwwwwjKKKKLXXXXO OLLLL",
"LLLoo O qwwwwwwwrKKKKJX OqwwwwwwwrKKKKLXX.O O LLLL",
"LLL# O OqwwwwwwwrKKKKA O qwwwwwwwrKKKKLX O O OLLLL",
"LLL.O O 8wwwwwwwjKKKKxO O8wwwwwwwjKKKJL O O OXLLLL",
"LLL$ O X-9wwwwwhNKKKD, O ;9wwwwwhNKKKL O O oXXLLLL",
"LLL O.XXX=60wykBKKKGs O XX=6ewukBKKKL O O oXXoLLLL",
"LLL@XXXXO O OiVKKHn3 O.XXXO O2vJKKJL O O XXXO LLLL",
"LLLoXXXO O OXXXXO O OXXXXO O O.XOXO O O.XXXO OLLLL",
"LLLOXXO O OXXXXO O OXXXXO O OXXXXO O OXXXXO O LLLL",
"LLL@XO O OXXXXO O OXXXXO O OXXXXO O OXXXXO O OLLLL",
"LLLXO O OXXX.O O OXXXXO O OXXXXO O OXXXXO O OXLLLL",
"LLL# O OXXX.O O OXXX.O O OXXX.O O OXXXXO O OXXLLLL",
"LLL O oXXX O O OXXX O O OXXX O O OXXX.O O OXXXLLLL",
"LLL@ oXXo O O oXXo O O oXXX O O OXXX O O OXXX LLLL",
"LLLXoXXo O O oXXo O O oXXo O O oXXo O O oXXo OLLLL",
"LLLOXXO O O oXXo O O oXXo O O oXXo O O oXXo O LLLL",
"LLLOXO O O XXXO O O XXXO O O oXXo O O oXXo O OLLLL",
"LLLXO O O.XXXO O O.XXXO O O XXXO O O XXXO O O LLLL",
"LLL@ O OXXXXO O OXXXXO O O.XXXO O O.XXXO O O oLLLL",
"LLL O OXXXXO O OXXXXO O OXXXXO O OXXXXO O O.XXLLLL",
"LLL+ OXXXXO O OXXXXO O OXXXXO O OXXXXO O OXXXXLLLL",
"LLL OXXX.O O OXXXXO O OXXXXO O OXXXXO O OXXXXOLLLL",
"LLLOXXX.O @ OXXX.O O OXXX.O O OXXXXO O OXXXXO LLLL",
"LLLXXX O LLLXXX O O OXoLLL O OXXX.O O LLXX.O +LLLL",
"LLLXo O LLLLLo O O oXXLLLLL OXXX O OLLLLL.O O LLLL",
"LLLO O LLLLLLLO O oXXLLLLLLLXXo O OXLLLLLL O OLLLL",
"LLL O LLLLLLLLLO oXXLLLLLLLLLo O OXLLLLLLLL oXLLLL",
"LLLO LLLLLLLLLLLXXXLLLLLLLLLLLO OXLLLLLLLLLLXOLLLL",
"LLLLLLLLLLLLLLLLLLLLLLLLLLLLLLL&LLLLLLLLLLLLL@LLLL"
};
