/* XPM */
static char *result[] = {
/* columns rows colors chars-per-pixel */
"50 50 31 1 ",
"  c black",
". c #1F1420",
"X c #543B54",
"o c #583E59",
"O c #604460",
"+ c #715172",
"@ c #936A94",
"# c #A275A3",
"$ c #A276A4",
"% c #AE7EB0",
"& c #B181B2",
"* c #C18DC3",
"= c #CC95CD",
"- c #CD96CF",
"; c #D198D2",
": c #D299D4",
"> c #DFA3E1",
", c #E1A5E3",
"< c #E6A9E8",
"1 c #E7A9E9",
"2 c #E8AAEA",
"3 c #E9ABEB",
"4 c #EAABEB",
"5 c #EBACED",
"6 c #ECACED",
"7 c #EEAFF0",
"8 c #F1B1F3",
"9 c #F2B1F4",
"0 c #F2B2F4",
"q c #F3B2F5",
"w c None",
/* pixels */
"wwwwwwwwwwwwwwwwwwwwwwwwwwwwwwwwwwwwwwwwwwwwwwwwww",
"wwwwwwwwwwwwwwwwwwwwwwwwwwwwwwwwwwwwwwwwwwwwwwwwww",
"wwwwwwwwwwwwwwwwwwwwwwwwwwwwwwwwwwwwwwwwwwwwwwwwww",
"wwwwwwwwwwwwwwwwwwwwwwwwwwwwwwwwwwwwwwwwwwwwwwwwww",
"wwwwwwwwwwwwwqqqqqwwwwwwwwwwwwwwwwwwwwwwwwwwwwwwww",
"wwwwwwwwwwwwqqqqqqwwwwwwwwwwwwwwwwwwwwwwwwwwwwwwww",
"wwwwwwwwwwqqqqqqqqqwwwwwwwwwwwwwwwwwwwwwwwwwwwwwww",
"wwwwwwwwwqqqqqqqqqqwwwwwwwwwwwwwwwwwwwwwwwwwwwwwww",
"wwwwwwwwqqqqqqqqqqqwwwwwwwwwwwwwwwwwwwwqqwwwwwwwww",
"wwwwwwwqqqqqqqqqqqqqwwwwwwwwwwwwwwwwwwqqqqwwwwwwww",
"wwwwwwqqqqqqqq4229qqwwwwwwwwwwwwwwwwqqqqqqqwwwwwww",
"wwwwwqqqqqqq7>&$$:60wwwwwwwwwwwwwwqqqqqqqqqqwwwwww",
"wwwwwqqqqqqq=O    %5qwwwwwwwwwwwwqqqqqqqqqqqqwwwww",
"wwwwqqqqqqq4+      ;8wwwwwwwwwwqqqqqqqqqqqqqqwwwww",
"wwwqqqqqqqq*X      #<wwwwwwwwwqqqqqqqqqqqqqqqqwwww",
"wwwqqqqqqqq*X      #1qwwwwwwqqqqqqqqqqqqqqqqqqwwww",
"wwwqqqqqqqq-o      &3qwwwwwqqqqqqqqqqqqqqqqqqqqwww",
"wwqqqqqqqqqq@.    O>qqqwwqqqqqqqqqqqqqqqqqqqqqqwww",
"wwqqqqqqqqqq,@oXX+=7qqqqqqqqqqqqqqqqqqqqqqqqqqqqww",
"wwqqqqqqqqqqqq-**4qqqqqqqqqqqqqqqqqqqqqqqqqqqqqqww",
"wqqqqqqqqqqqqqqqqqqqqqqqqqqqqqqqqqqqqqqqqqqqqqqqww",
"wqqqqqqqqqqqqqqqqqqqqqqqqqqqqqqqqqqqqqqqqqqqqqqqww",
"wqqqqqqqqqqqqqqqqqqqqqqqqqqqqqqqqqqqqqqqqqqqqqqqww",
"wqqqqqqqqqqqqqqqqqqqqqqqqqqqqqqqqqqqqqqqqqqqqqqqqw",
"wqqqqqqqqqqqqqqqqqqqqqqqqqqqqqqqqqqqqqqqqqqqqqqqqw",
"wqqqqqqqqqqqqqqqqqqqqqqqqqqqqqqqqqqqqqqqqqqqqqqqqw",
"wqqqqqqqqqqqqqqqqqqqqqqqqqqqqqqqqqqqqqqqqqqqqqqqqw",
"wqqqqqqqqqqqqqqqqqqqqqqqqqqqqqqqqqqqqqqqqqqqqqqqqw",
"wqqqqqqqqqqqqqqqqqqqqqqqqqqqqqqqqqqqqqqqqqqqqqqqqw",
"wqqqqqqqqqqqqqqqqqqqqqqqqqqqqqqqqqqqqqqqqqqqqqqqww",
"wqqqqqqqqqqqqqqqqqqqqqqqqqqqqqqqqqqqqqqqqqqqqqqqww",
"wwqqqqqqqqqqqqqqqqqqqqqqqqqqqqqqqqqqqqqqqqqqqqqqww",
"wwqqqqqqqqqqqqqqqqqqqqqqqqqqqqqqqqqqqqqqqqqqqqqqww",
"wwqqqqqqqqqqqqqqqqqqqqqqqqqqqqqqqqqqqqqqqqqqqqqwww",
"wwwqqqqqqqqqqqqqqqqqqqqqqqqqqqqqqqqqqqqqqqqqqqqwww",
"wwwqqqqqqqqqqqqqqqqqqqqqqqqqqqqqqqqqqqqqqqqqqqqwww",
"wwwwqqqqqqqqqqqqqqqqqqqqqqqqqqqqqqqqqqqqqqqqqqwwww",
"wwwwqqqqqqqqqqqqqqqqqqqqqqqqqqqqqqqqqqqqqqqqqqwwww",
"wwwwwqqqqqqqqqqqqqqqqqqqqqqqqqqqqqqqqqqqqqqqqwwwww",
"wwwwwwqqqqqqqqqqqqqqqqqqqqqqqqqqqqqqqqqqqqqqwwwwww",
"wwwwwwwqqqqqqqqqqqqqqqqqqqqqqqqqqqqqqqqqqqqwwwwwww",
"wwwwwwwwqqqqqqqqqqqqqqqqqqqqqqqqqqqqqqqqqqqwwwwwww",
"wwwwwwwwwqqqqqqqqqqqqqqqqqqqqqqqqqqqqqqqqqwwwwwwww",
"wwwwwwwwwwqqqqqqqqqqqqqqqqqqqqqqqqqqqqqqwwwwwwwwww",
"wwwwwwwwwwwqqqqqqqqqqqqqqqqqqqqqqqqqqqqwwwwwwwwwww",
"wwwwwwwwwwwwwqqqqqqqqqqqqqqqqqqqqqqqqqwwwwwwwwwwww",
"wwwwwwwwwwwwwwqqqqqqqqqqqqqqqqqqqqqqwwwwwwwwwwwwww",
"wwwwwwwwwwwwwwwwwqqqqqqqqqqqqqqqqqwwwwwwwwwwwwwwww",
"wwwwwwwwwwwwwwwwwwwwqqqqqqqqqqwwwwwwwwwwwwwwwwwwww",
"wwwwwwwwwwwwwwwwwwwwwwwwwwwwwwwwwwwwwwwwwwwwwwwwww"
};
