/* XPM */
static char *result[] = {
/* columns rows colors chars-per-pixel */
"50 50 32 1 ",
"  c black",
". c #1F1420",
"X c #543B54",
"o c #583E59",
"O c #604460",
"+ c #715172",
"@ c #936A94",
"# c #9F73A0",
"$ c #A175A2",
"% c #A276A4",
"& c #AC7DAE",
"* c #B080B2",
"= c #B181B2",
"- c #C18DC3",
"; c #CC95CD",
": c #CD96CF",
"> c #CE96D0",
", c #D299D3",
"< c #DFA3E1",
"1 c #E1A5E3",
"2 c #E4A7E6",
"3 c #E6A8E8",
"4 c #E8AAEA",
"5 c #EAABEB",
"6 c #EAABEC",
"7 c #EBACED",
"8 c #EEAFF0",
"9 c #F1B0F3",
"0 c #F2B1F4",
"q c #F2B2F4",
"w c #F3B2F5",
"e c None",
/* pixels */
"eeeeeeeeeeeeeeeeeeeeeeeeeeeeeeeeeeeeeeeeeeeeeeeeee",
"eeeeeeeeeeeeeeeeeeeewwwwwwwwwweeeeeeeeeeeeeeeeeeee",
"eeeeeeeeeeeeeeeewwwwwwwwwwwwwwwwweeeeeeeeeeeeeeeee",
"eeeeeeeeeeeeeewwwwwwwwwwwwwwwwwwwwwweeeeeeeeeeeeee",
"eeeeeeeeeeeewwwwwwwwwwwwwwwwwwwwwwwwweeeeeeeeeeeee",
"eeeeeeeeeeewwwwwwwwwwwwwwwwwwwwwwwwwwwweeeeeeeeeee",
"eeeeeeeeeewwwwwwwwwwwwwwwwwwwwwwwwwwwwwweeeeeeeeee",
"eeeeeeeewwwwwwwwwwwwwwwwwwwwwwwwwwwwwwwwweeeeeeeee",
"eeeeeeewwwwwwwwwwwwwwwwwwwwwwwwwwwwwwwwwwweeeeeeee",
"eeeeeeewwwwwwwwwwwwwwwwwwwwwwwwwwwwwwwwwwwweeeeeee",
"eeeeeewwwwwwwwwwwwwwwwwwwwwwwwwwwwwwwwwwwwwweeeeee",
"eeeeewwwwwwwwwwwwwwwwwwwwwwwwwwwwwwwwwwwwwwwweeeee",
"eeeewwwwwwwwwwwwwwwwwwwwwwwwwwwwwwwwwwwwwwwwwweeee",
"eeeewwwwwwwwwwwwwwwwwwwwwwwwwwwwwwwwwwwwwwwwwweeee",
"eeewwwwwwwwwwwwwwwwwwwwwwwwwwwwwwwwwwwwwwwwwwwweee",
"eeewwwwwwwwwwwwwwwwwwwwwwwwwwwwwwwwwwwwwwwwwwwweee",
"eeewwwwwwwwwwwwwwwwwwwwwwwwwwwwwwwwwwwwwwwwwwwwwee",
"eewwwwwwwwwwwwwwwwwwwwwwwwwwwwwwwwwwwwwwwwwwwwwwee",
"eewwwwwwwwwwwwwwwwwwwwwwwwwwwwwwwwwwwwwwwwwwwwwwee",
"eewwwwwwwwwwwwwwwwwwwwwwwwwwwwwwwwwwwwwwwwwwwwwwwe",
"eewwwwwwwwwwwwwwwwwwwwwwwwwwwwwwwwwwwwwwwwwwwwwwwe",
"ewwwwwwwwwwwwwwwwwwwwwwwwwwwwwwwwwwwwwwwwwwwwwwwwe",
"ewwwwwwwwwwwwwwwwwwwwwwwwwwwwwwwwwwwwwwwwwwwwwwwwe",
"ewwwwwwwwwwwwwwwwwwwwwwwwwwwwwwwwwwwwwwwwwwwwwwwwe",
"ewwwwwwwwwwwwwwwwwwwwwwwwwwwwwwwwwwwwwwwwwwwwwwwwe",
"ewwwwwwwwwwwwwwwwwwwwwwwwwwwwwwwwwwwwwwwwwwwwwwwwe",
"ewwwwwwwwwwwwwwwwwwwwwwwwwwwwwwwwwwwwwwwwwwwwwwwwe",
"eewwwwwwwwwwwwwwwwwwwwwwwwwwwwwwwwwwwwwwwwwwwwwwwe",
"eewwwwwwwwwwwwwwwwwwwwwwwwwwwwwwwwwwwwwwwwwwwwwwwe",
"eewwwwwwwwwwwwwwwwwwwwwwwwwwwwwwwwwwwwwwwwwwwwwwwe",
"eewwwwwwwwwwwwwwwwwwwwwwwwwwwwww5--:wwwwwwwwwwwwee",
"eewwwwwwwwwwwwwwwwwwwwwwwwwwww8;+XXo@1wwwwwwwwwwee",
"eeewwwwwwwwwwwwwwwwwwwwwweeeww<O    .@wwwwwwwwwwee",
"eeewwwwwwwwwwwwwwwwwwwwweeeew4*      o:wwwwwwwweee",
"eeeewwwwwwwwwwwwwwwwwweeeeeee3$      X-wwwwwwwweee",
"eeeewwwwwwwwwwwwwwwwweeeeeeee2#      X-wwwwwwwweee",
"eeeeewwwwwwwwwwwwwweeeeeeeeee9>      +5wwwwwwweeee",
"eeeeewwwwwwwwwwwwweeeeeeeeeeee6&    O;wwwwwwweeeee",
"eeeeeewwwwwwwwwwweeeeeeeeeeeeeq7,%%=<8wwwwwwweeeee",
"eeeeeeewwwwwwwweeeeeeeeeeeeeeeew0445wwwwwwwweeeeee",
"eeeeeeeewwwwwweeeeeeeeeeeeeeeeewwwwwwwwwwwweeeeeee",
"eeeeeeeeewwweeeeeeeeeeeeeeeeeeewwwwwwwwwwweeeeeeee",
"eeeeeeeeeeeeeeeeeeeeeeeeeeeeeeeewwwwwwwwweeeeeeeee",
"eeeeeeeeeeeeeeeeeeeeeeeeeeeeeeeewwwwwwwweeeeeeeeee",
"eeeeeeeeeeeeeeeeeeeeeeeeeeeeeeeeewwwwweeeeeeeeeeee",
"eeeeeeeeeeeeeeeeeeeeeeeeeeeeeeeeewwweeeeeeeeeeeeee",
"eeeeeeeeeeeeeeeeeeeeeeeeeeeeeeeeeeeeeeeeeeeeeeeeee",
"eeeeeeeeeeeeeeeeeeeeeeeeeeeeeeeeeeeeeeeeeeeeeeeeee",
"eeeeeeeeeeeeeeeeeeeeeeeeeeeeeeeeeeeeeeeeeeeeeeeeee",
"eeeeeeeeeeeeeeeeeeeeeeeeeeeeeeeeeeeeeeeeeeeeeeeeee"
};
