/* XPM */
static char *result[] = {
/* columns rows colors chars-per-pixel */
"50 50 23 1 ",
"  c black",
". c #1F1420",
"X c #543B54",
"o c #583E59",
"O c #604460",
"+ c #715172",
"@ c #936A94",
"# c #A276A4",
"$ c #AE7FB0",
"% c #B181B2",
"& c #C18DC3",
"* c #CC95CD",
"= c #CD96CF",
"- c #D299D4",
"; c #DFA3E1",
": c #E1A5E3",
"> c #E8AAEA",
", c #EAABEB",
"< c #ECADEE",
"1 c #EEAFF0",
"2 c #F2B1F4",
"3 c #F3B2F5",
"4 c None",
/* pixels */
"44444444444444444444444444444444444444444444444444",
"44444444444444444444333333333444444444444444444444",
"44444444444444443333333333333333344444444444444444",
"44444444444444333333333333333333333444444444444444",
"44444444444433333333333333333333333334444444444444",
"44444444444333333333333333333333333333444444444444",
"44444444443333333333333333333333333333344444444444",
"44444444333333333333333333333333333333333444444444",
"44444443333333333333333333333333333333333344444444",
"44444443333333333333333333333333333333333344444444",
"444444333333333333333333333333332>>,33333334444444",
"4444433333333333333333333333333<-##%;1333333444444",
"444433333333333333333333333333<$    O*333333344444",
"444433333333333333333333333332-      +,33333344444",
"44433333333333333333333333333>#      X&33333334444",
"44433333333333333333333333333>#      X&33333334444",
"44433333333333333333333333333,%      o=33333334444",
"443333333333333333333333333333;O    .@333333333444",
"4433333333333333333333333333331*+XXo@:333333333444",
"44333333333333333333333333333333,&&=33333333333444",
"43333333333333333333333333333333333333333333333344",
"43333333333333333333333333333333333333333333333344",
"43333333333333333333333333333333333333333333333344",
"43333333333333333333333333333333333333333333333344",
"43333333333333333333333333333333333333333333333344",
"43333333333333333333333333333333333333333333333344",
"43333333333333333333333333333333333333333333333344",
"43333333333333333333333333333333333333333333333344",
"43333333333333333333333333333333333333333333333344",
"43333333333333333333333333333333333333333333333344",
"44333333333333333333333333333333333333333333333444",
"44333333333333333333333333333333333333333333333444",
"44333333333333333333333333333333333333333333333444",
"44433333333333333333333333333333333333333333334444",
"44433333333333333333333333333333333333333333334444",
"44433333333333333333333333333333333333333333334444",
"44443333333333333333333333333333333333333333344444",
"44443333333333333333333333333333333333333333344444",
"44444333333333333333333333333333333333333333444444",
"44444433333333333333333333333333333333333334444444",
"44444443333333333333333333333333333333333344444444",
"44444443333333333333333333333333333333333344444444",
"44444444333333333333333333333333333333333444444444",
"44444444443333333333333333333333333333344444444444",
"44444444444333333333333333333333333333444444444444",
"44444444444433333333333333333333333334444444444444",
"44444444444444333333333333333333333444444444444444",
"44444444444444443333333333333333344444444444444444",
"44444444444444444444333333333444444444444444444444",
"44444444444444444444444444444444444444444444444444"
};
