/* XPM */
static char *_0573522abd443a78d9c891c3ae54e95oydKZECi8sBuGD6g[] = {
/* columns rows colors chars-per-pixel */
"50 37 222 2 ",
"   c None",
".  c #190A08",
"X  c #1F120F",
"o  c #1F1212",
"O  c #0E0406",
"+  c #280B0A",
"@  c #23120C",
"#  c #211206",
"$  c #221513",
"%  c #2B1515",
"&  c #2C1C1B",
"*  c #2F1A12",
"=  c #341712",
"-  c #3A1712",
";  c #341913",
":  c #3B1914",
">  c #341C1B",
",  c #3C1F1D",
"<  c #37100C",
"1  c #2E2114",
"2  c #3C2C15",
"3  c #352A1A",
"4  c #38231A",
"5  c #36332C",
"6  c #3E2A23",
"7  c #43150E",
"8  c #431411",
"9  c #431915",
"0  c #4A1B15",
"q  c #421E1C",
"w  c #541C17",
"e  c #50140F",
"r  c #611E16",
"t  c #4A201F",
"y  c #5C2219",
"u  c #582318",
"i  c #493A16",
"p  c #64241B",
"a  c #6C291B",
"s  c #6B241D",
"d  c #732B1D",
"f  c #7C2E1E",
"g  c #702719",
"h  c #653B1C",
"j  c #693218",
"k  c #79371C",
"l  c #452422",
"z  c #432B29",
"x  c #492A22",
"c  c #542A26",
"v  c #413624",
"b  c #4F342E",
"n  c #5C322E",
"m  c #553B24",
"M  c #593935",
"N  c #682C23",
"B  c #742F21",
"V  c #6B342C",
"C  c #713624",
"Z  c #7B3223",
"A  c #7B3928",
"S  c #693935",
"D  c #723D32",
"F  c #5D461E",
"G  c #584728",
"H  c #4B4534",
"J  c #58453A",
"K  c #51513E",
"L  c #4F442C",
"P  c #635227",
"I  c #7A433A",
"U  c #744736",
"Y  c #655B38",
"T  c #795A38",
"R  c #6F4F23",
"E  c #6E633D",
"W  c #6C6037",
"Q  c #786838",
"!  c #635C42",
"~  c #7C534F",
"^  c #7D4D43",
"/  c #6C6142",
"(  c #766C46",
")  c #79744A",
"_  c #843523",
"`  c #853B2A",
"'  c #8B3B29",
"]  c #883726",
"[  c #923E2C",
"{  c #843C32",
"}  c #864529",
"|  c #91412E",
" . c #8D4333",
".. c #834539",
"X. c #8A463A",
"o. c #934332",
"O. c #9B4633",
"+. c #934A3A",
"@. c #9D4E3B",
"#. c #964937",
"$. c #8E5B3C",
"%. c #975138",
"&. c #A24D3A",
"*. c #A04734",
"=. c #AC543F",
"-. c #89763F",
";. c #854C45",
":. c #924F41",
">. c #8E5948",
",. c #9B5D4F",
"<. c #965346",
"1. c #8C5D58",
"2. c #AB5B46",
"3. c #AA5C4A",
"4. c #A55747",
"5. c #B15D48",
"6. c #846D47",
"7. c #887749",
"8. c #94774D",
"9. c #967954",
"0. c #9D6247",
"q. c #A96747",
"w. c #B4614C",
"e. c #BA664E",
"r. c #B0754D",
"t. c #AB6958",
"y. c #B46652",
"u. c #BB6A54",
"i. c #BB6E59",
"p. c #B56856",
"a. c #A37F5A",
"s. c #BD735D",
"d. c #B97559",
"f. c #9C7971",
"g. c #BE7563",
"h. c #BA7969",
"j. c #BF7B64",
"k. c #A1756C",
"l. c #C0684F",
"z. c #C26A54",
"x. c #C46D5A",
"c. c #C4735E",
"v. c #CA795F",
"b. c #C37661",
"n. c #C47963",
"m. c #C47C6B",
"M. c #CA7D69",
"N. c #C97963",
"B. c #95824C",
"V. c #998759",
"C. c #A48F5D",
"Z. c #A28657",
"A. c #A5945C",
"S. c #AC955A",
"D. c #A89458",
"F. c #B49E5E",
"G. c #B38256",
"H. c #B6A15F",
"J. c #998E64",
"K. c #A59564",
"L. c #A69B64",
"P. c #A79869",
"I. c #B69D65",
"U. c #B99F67",
"Y. c #B78376",
"T. c #A79874",
"R. c #B99577",
"E. c #B1A167",
"W. c #BBA565",
"Q. c #BAA46B",
"!. c #BDAB6C",
"~. c #B0A16D",
"^. c #B9A674",
"/. c #BFB27C",
"(. c #C5816E",
"). c #CC836C",
"_. c #D1846C",
"`. c #C48573",
"'. c #CC8573",
"]. c #CD8B76",
"[. c #CC8B7A",
"{. c #C48A7B",
"}. c #D28C75",
"|. c #D28C7A",
" X c #C8947B",
".X c #D2917B",
"XX c #D1987E",
"oX c #C2AC6B",
"OX c #C1A668",
"+X c #CEB46C",
"@X c #C5B06C",
"#X c #D1BA6F",
"$X c #C4AE72",
"%X c #CBB374",
"&X c #CEB973",
"*X c #C3B27C",
"=X c #CAB67B",
"-X c #CEBA7A",
";X c #C6B474",
":X c #D3BB73",
">X c #D8BF75",
",X c #D3BE7A",
"<X c #DCC37A",
"1X c #DAC278",
"2X c #E1C97D",
"3X c #B18A82",
"4X c #BCA78A",
"5X c #CA8E80",
"6X c #CCBA83",
"7X c #D3BF82",
"8X c #C5BB91",
"9X c #D4C284",
"0X c #DBC581",
"qX c #DECA84",
"wX c #D3C48B",
"eX c #DECC8B",
"rX c #D8CA95",
"tX c #E1CD83",
"yX c #E2CE89",
"uX c #CAC2A6",
"iX c #D7CDB4",
"pX c #D6D3BB",
/* pixels */
"                                                                                                    ",
"                                                                                                    ",
"                                                                                                    ",
"                                                                                                    ",
"                                                                                                    ",
"                                                                                                    ",
"                                                                            H M ;.D ;.;.,.          ",
"                                                                      ! H J 9 u D +.&.@.3.          ",
"                                                                    H 3 , J N A +.2.w.w.w.t.        ",
"                                                                K v * = 0 a }  .@.i.d.v.u.y.8.      ",
"                                                              H 3 * = 0 y N  .@.w.p.).'.v.u.$.9.    ",
"                                                            G 3 ; - < 7 p f  .2.s.n.}.}.).c.q.C.    ",
"                                                          L 4 ; : - 0 y d ' @.p.c.).].].M.N.r.=X    ",
"                                                        v 1 ; : : 0 p g ] o.e.v.n.(.].}.N.v.r.wX    ",
"                                                        1 ; : ; : w g _ | 2.v.m.n._.}._._. XI.,X    ",
"                                                      5 ; ; ; : 9 y d | 3.n.m.(.'.}.}.).|.iXW.+X    ",
"                                                  A.7.2 ; ; = : q N _ 4.x.M.m.[.[.}.}.M.uXuXZ.+X    ",
"                                              T.L.B.F # = ; = : w B [ y.m.'.[.|..X|.). XuXK.H.1X    ",
"                                          V.T.W.7.F # + = - : 9 w _ <.g.m.[.5X|.}.XXiXiX^.S.>XtX    ",
"                                  b n N U T 9.R P 2 O + - : 8 9 r ] 4.g.[.[.|.|.5XpX8XD.W.:X2X<X    ",
"                              M c y a g f _ _ ` I x O . - 8 8 w s ` 3.m.|.'.|.n.4X4XK.Q.%X2XtX      ",
"                          z q w p g f k _ _ ] [ *.O.' e + 8 8 w d A <.i.M.M.c.%.T.Z.=X1XtX2XeX      ",
"                      & & - 0 r f ] ' [ | O.&.5.x.x.l.2.g < e r k k  .t.x.x.&.U 9.$X9XtXyX<X        ",
"                  5 & & % : s Z ` | #.@.=.e.n.(.(.).M.l.[ + e d } j %.w.w.@.a.Q.9X0XtX<X,X          ",
"              K 5 $ & > t N { { { >.t.h.`.5X5X`.].'.N.e.9 . 7 C h h T a.Z.U.-X,X0XeXqX:X            ",
"            ! 3 o > , q V ..;.1.f.Y.5X{.{.`.).).N.c.z. .v J.V.G m Y C.,X-X7X,XF.+X#X=X              ",
"          E t X & , > c D ;.1.f.3XY.`.`.`.b.g.i.u.l.r.OX%XW.S.D.D.W.!.-X-XqX0X:X&X                  ",
"        W G @ X > > , V S S ~ k.h.h.j.n.M.i.u.z.w.G.OX1X<X&XOXS.D.F.W.!.$X$XE.                      ",
"      B.Q i X X % , c V S I 1.t.h.g.s.c.d.u.e.2.q.U.>X1X+X@XW.W.H.S.A.!.                            ",
"    A.K.E 2 . X % l c V I :.<.,.t.t.p.u.3.4.$.U.-X>X>X:XoX                                          ",
"    D.^.Y X . # % l l D >.;...X.@.%.+.>.R.^.6XrX9X<X                                                ",
"      V.L.G 3 $ z z x n S D C C 8.Q.6X=XwX7XwX9XqX                                                  ",
"        E ( 7.-.7.6.E ( 6.K.*X*X*X*X6X6X;X7X<X=X                                                    ",
"          / Y P P Q -.7.S.P.^.Q.V.A.!.wXwX=X                                                        ",
"              E W ( Q ( L.~.I.E.!.!.!.-X/.                                                          ",
"                    ) ) J.L.A.E.F.L.                                                                ",
"                                                                                                    "
};
